<svg width="29" height="22" viewBox="0 0 29 22" fill="none" xmlns="http://www.w3.org/2000/svg">
<g clip-path="url(#clip0_287_98)">
<path d="M24.0137 1.93275C22.2057 1.1138 20.2669 0.510442 18.2398 0.164871C18.2029 0.158202 18.166 0.174869 18.147 0.208204C17.8976 0.645999 17.6214 1.21714 17.428 1.66605C15.2477 1.34382 13.0785 1.34382 10.9429 1.66605C10.7494 1.20716 10.4632 0.645999 10.2128 0.208204C10.1937 0.175981 10.1569 0.159314 10.1199 0.164871C8.0939 0.509337 6.15509 1.1127 4.34596 1.93275C4.3303 1.93941 4.31688 1.95054 4.30797 1.96497C0.630444 7.3886 -0.376984 12.6789 0.117226 17.9037C0.119462 17.9292 0.133998 17.9537 0.154124 17.9692C2.58045 19.7282 4.93076 20.796 7.23743 21.5038C7.27434 21.515 7.31346 21.5016 7.33695 21.4716C7.88259 20.736 8.36898 19.9604 8.78602 19.1448C8.81063 19.097 8.78714 19.0404 8.73683 19.0215C7.96533 18.7326 7.23071 18.3803 6.52406 17.9803C6.46816 17.9481 6.46369 17.8692 6.51511 17.8314C6.66382 17.7214 6.81256 17.6069 6.95456 17.4914C6.98025 17.4703 7.01604 17.4658 7.04625 17.4792C11.6887 19.5715 16.7146 19.5715 21.3023 17.4792C21.3325 17.4647 21.3683 17.4692 21.3951 17.4903C21.5371 17.6058 21.6858 17.7214 21.8357 17.8314C21.8871 17.8692 21.8837 17.9481 21.8278 17.9803C21.1212 18.3881 20.3865 18.7326 19.6139 19.0204C19.5636 19.0393 19.5413 19.097 19.5659 19.1448C19.9918 19.9593 20.4782 20.7349 21.0138 21.4705C21.0362 21.5016 21.0764 21.515 21.1133 21.5038C23.4312 20.796 25.7815 19.7282 28.2078 17.9692C28.2291 17.9537 28.2425 17.9303 28.2447 17.9048C28.8362 11.8644 27.254 6.61746 24.0506 1.96607C24.0428 1.95054 24.0294 1.93941 24.0137 1.93275ZM9.47929 14.7223C8.0816 14.7223 6.92994 13.4556 6.92994 11.9C6.92994 10.3443 8.05927 9.0776 9.47929 9.0776C10.9105 9.0776 12.051 10.3554 12.0286 11.9C12.0286 13.4556 10.8993 14.7223 9.47929 14.7223ZM18.905 14.7223C17.5074 14.7223 16.3557 13.4556 16.3557 11.9C16.3557 10.3443 17.485 9.0776 18.905 9.0776C20.3362 9.0776 21.4767 10.3554 21.4544 11.9C21.4544 13.4556 20.3362 14.7223 18.905 14.7223Z" fill="#fff"/>
</g>
<defs>
<clipPath id="clip0_287_98">
<rect width="28.3669" height="21.6923" fill="white" transform="translate(0 0.0010376)"/>
</clipPath>
</defs>
</svg>
