<svg width="31" height="25" viewBox="0 0 31 25" fill="none" xmlns="http://www.w3.org/2000/svg">
<g clip-path="url(#clip0_287_101)">
<path d="M9.61734 24.3019C20.8767 24.3019 27.0336 15.0704 27.0336 7.06549C27.0336 6.80328 27.0282 6.54225 27.0163 6.28241C28.2115 5.42729 29.2504 4.36016 30.0696 3.14539C28.9729 3.62787 27.7926 3.95268 26.5544 4.09914C27.8183 3.34914 28.7885 2.16271 29.2462 0.74834C28.0635 1.44224 26.7537 1.94657 25.3592 2.21882C24.2422 1.04126 22.6519 0.30484 20.891 0.30484C17.5107 0.30484 14.7694 3.01784 14.7694 6.36214C14.7694 6.83753 14.8231 7.29993 14.9281 7.74343C9.84054 7.49009 5.3294 5.07946 2.31064 1.4139C1.78494 2.30918 1.48181 3.34914 1.48181 4.45878C1.48181 6.56056 2.56245 8.41607 4.20579 9.50151C3.20153 9.4708 2.25813 9.19797 1.43347 8.74383C1.43257 8.76925 1.43257 8.79403 1.43257 8.8212C1.43257 11.7551 3.54254 14.2047 6.34351 14.7598C5.82914 14.8986 5.28792 14.973 4.7294 14.973C4.33557 14.973 3.95188 14.9346 3.57894 14.8637C4.35824 17.2708 6.61799 19.0224 9.29723 19.0714C7.20217 20.6966 4.56292 21.6645 1.69453 21.6645C1.20105 21.6645 0.713534 21.6367 0.234375 21.5807C2.94344 23.2992 6.16031 24.3019 9.61766 24.3019" fill="#fff"/>
</g>
<defs>
<clipPath id="clip0_287_101">
<rect width="30.0355" height="24.1953" fill="white" transform="translate(0.132812 0.20575)"/>
</clipPath>
</defs>
</svg>
