<svg width="24" height="20" viewBox="0 0 24 20" fill="none" xmlns="http://www.w3.org/2000/svg">
<path d="M23.643 2.937C22.808 3.307 21.911 3.557 20.968 3.67C21.941 3.08779 22.669 2.17147 23.016 1.092C22.1019 1.63499 21.1014 2.01719 20.058 2.222C19.3564 1.47286 18.4271 0.976326 17.4143 0.809474C16.4016 0.642622 15.3621 0.814791 14.4572 1.29925C13.5524 1.78371 12.8328 2.55336 12.4102 3.4887C11.9875 4.42405 11.8855 5.47275 12.12 6.472C10.2677 6.379 8.45564 5.89755 6.80144 5.0589C5.14723 4.22026 3.68785 3.04316 2.51801 1.604C2.11801 2.294 1.88801 3.094 1.88801 3.946C1.88757 4.713 2.07644 5.46824 2.43789 6.14473C2.79934 6.82122 3.32217 7.39804 3.96001 7.824C3.22029 7.80046 2.49688 7.60058 1.85001 7.241V7.301C1.84994 8.37674 2.22204 9.41938 2.90319 10.252C3.58434 11.0846 4.53258 11.6559 5.58701 11.869C4.9008 12.0547 4.18135 12.0821 3.48301 11.949C3.78051 12.8746 4.36001 13.684 5.14038 14.2639C5.92075 14.8438 6.86293 15.1652 7.83501 15.183C6.18484 16.4784 4.1469 17.1811 2.04901 17.178C1.67739 17.1781 1.30609 17.1564 0.937012 17.113C3.06649 18.4822 5.54535 19.2088 8.07701 19.206C16.647 19.206 21.332 12.108 21.332 5.952C21.332 5.752 21.327 5.55 21.318 5.35C22.2293 4.69097 23.0159 3.8749 23.641 2.94L23.643 2.937Z" fill="white"/>
</svg>
